<svg width="24" height="24" viewBox="0 0 24 24" fill="none" xmlns="http://www.w3.org/2000/svg">
<path opacity="0.5" d="M10 10H12.5" stroke="#575757" stroke-width="1.4" stroke-linecap="round" stroke-linejoin="round"/>
<path d="M12.6486 7H7.02703C5.35525 7 4 8.30584 4 9.91667V14.0833C4 15.6942 5.35525 17 7.02703 17H12.6486C14.3204 17 15.6757 15.6942 15.6757 14.0833V9.91667C15.6757 8.30584 14.3204 7 12.6486 7Z" stroke="#575757" stroke-width="1.4" stroke-linecap="round" stroke-linejoin="round"/>
<path d="M15.6757 10.1167L18.7494 8.64168C18.8812 8.57837 19.0277 8.54857 19.1749 8.55509C19.322 8.56162 19.465 8.60425 19.5903 8.67896C19.7156 8.75367 19.8189 8.85797 19.8906 8.98197C19.9623 9.10597 20 9.24557 20 9.38752V14.6109C20.0001 14.7529 19.9624 14.8926 19.8907 15.0167C19.8189 15.1409 19.7155 15.2452 19.5901 15.32C19.4647 15.3947 19.3215 15.4373 19.1742 15.4437C19.027 15.4501 18.8804 15.4202 18.7485 15.3567L15.6757 13.8792V10.1167Z" stroke="#575757" stroke-width="1.4" stroke-linecap="round" stroke-linejoin="round"/>
</svg>
