<svg width="24" height="24" viewBox="0 0 24 24" fill="none" xmlns="http://www.w3.org/2000/svg">
<path d="M7.2 17.0509C6.16 16.9547 5.46 16.7356 4.9376 16.2399C4 15.3522 4 13.9226 4 11.0641C4 8.20565 4.0008 6.77679 4.9376 5.88839C5.8744 5 7.3832 5 10.4 5H13.6C16.6168 5 18.1248 5.00076 19.0624 5.88839C20 6.77603 20 8.20565 20 11.0641C20 13.9226 19.9992 15.3515 19.0624 16.2399C18.1256 17.1283 16.6168 17.1283 13.6 17.1283C12.6112 17.1283 11.5216 17.5073 10.5272 17.9962C8.92881 18.7822 8.12961 19.1757 7.73601 18.9247C7.34241 18.6738 7.41681 17.8976 7.56641 16.3445L7.60001 15.9912" stroke="#575757" stroke-width="1.4" stroke-linecap="round" stroke-linejoin="round"/>
<path opacity="0.5" d="M12 9.383V12.673M8.80005 9.383V12.673M15.2 9.383V12.673" stroke="#575757" stroke-width="1.4" stroke-linecap="round"/>
</svg>
